<?xml version="1.0" encoding="utf-8"?>
<!-- Generator: Adobe Illustrator 24.0.2, SVG Export Plug-In . SVG Version: 6.00 Build 0)  -->
<svg version="1.1" id="Layer_1" xmlns="http://www.w3.org/2000/svg" xmlns:xlink="http://www.w3.org/1999/xlink" x="0px" y="0px"
	 viewBox="0 0 60.1 60" style="enable-background:new 0 0 60.1 60;" xml:space="preserve">
<style type="text/css">
	.st0{fill:#FFFFFF;}
	.st1{opacity:0.5;fill:#FCFCFC;enable-background:new    ;}
</style>
<title>layout</title>
<path class="st0" d="M56.7,60H3.3C1.5,60,0,58.5,0,56.7V3.3C0,1.5,1.5,0,3.3,0h53.4c1.8,0,3.3,1.5,3.3,3.3v53.3
	C60.1,58.5,58.6,60,56.7,60z M3.3,2.5c-0.5,0-0.9,0.4-0.9,0.9v53.3c0,0.5,0.4,0.9,0.9,0.9h53.4c0.5,0,0.9-0.4,0.9-0.9V3.3
	c0-0.5-0.4-0.9-0.9-0.9H3.3z"/>
<polygon class="st1" points="59.3,15.5 0,15.5 0,17.2 21.1,17.2 21.1,59.4 22.8,59.4 22.8,17.2 59.3,17.2 "/>
</svg>
