<!-- Generated by IcoMoon.io -->
<svg version="1.1" xmlns="http://www.w3.org/2000/svg" width="512" height="512" viewBox="0 0 512 512">
	<title>
	</title>
	<path fill="#696969" d="M432.128 353.28c-15.872 0-32.256 6.656-45.056 12.8l-54.272-54.272c12.8-15.872 19.456-35.328 19.456-54.272 0-19.456-6.656-35.328-12.8-48.128l79.872-89.6c9.728 3.072 18.944 6.656 28.672 6.656 35.328 0 64-29.184 64-64 0-35.328-28.672-64-64-64s-64 28.672-64 64c0 12.8 3.072 25.6 9.728 34.816l-76.8 86.528c-15.872-12.8-38.4-22.528-60.928-22.528-38.4 0-73.728 25.6-86.528 57.856l-41.472-19.456c0-3.072 0-6.144 0-6.144 0-35.328-28.672-64-64-64s-64 28.672-64 64c0 35.328 28.672 64 64 64 22.528 0 41.472-9.728 51.2-25.6l45.056 18.944c0 3.584 0 3.584 0 6.656 0 28.672 12.8 51.2 31.744 70.144l-25.6 32.256c-9.728-3.072-15.872-6.656-22.528-6.656-25.6 0-47.616 22.528-47.616 48.128s22.016 48.128 47.616 48.128c25.6 0 48.128-22.528 48.128-48.128 0-6.144-3.072-12.8-3.072-18.944l31.744-35.328c9.728 3.072 22.528 6.144 35.328 6.144 19.456 0 38.4-6.144 54.272-15.872l54.784 54.272c-6.656 9.728-12.8 25.6-12.8 41.984 0 44.544 34.816 79.872 79.872 79.872 44.544 0 79.872-35.328 79.872-79.872 0-45.056-35.328-80.384-79.872-80.384zM64 228.864c-18.944 0-38.4-16.384-38.4-35.328s19.456-38.4 38.4-38.4c19.456 0 38.4 15.872 38.4 35.328s-18.944 38.4-38.4 38.4zM143.872 423.936c-12.8 0-22.016-9.728-22.016-22.528s9.216-22.528 22.016-22.528c12.8 0 22.528 9.728 22.528 22.528s-9.728 22.528-22.528 22.528zM448 27.136c19.456 0 35.328 15.872 35.328 35.328s-15.872 38.4-35.328 38.4c-18.944 0-35.328-16.384-35.328-35.328s16.384-38.4 35.328-38.4zM256 321.536c-35.328 0-64-28.672-64-64s28.672-64 64-64c35.328 0 64 28.672 64 64s-28.672 64-64 64zM432.128 481.792c-25.6 0-48.128-22.528-48.128-48.128s22.528-48.128 48.128-48.128c25.6 0 48.128 22.528 48.128 48.128s-22.528 48.128-48.128 48.128z">
	</path>
</svg>
