<!-- Generated by IcoMoon.io -->
<svg version="1.1" xmlns="http://www.w3.org/2000/svg" width="475" height="512" viewBox="0 0 475 512">
	<title>
	</title>
	<path fill="#757575" d="M328.9 219.422q0-52.736-37.376-90.112t-90.624-37.888-90.624 37.888-37.376 90.112 37.376 90.624 90.624 37.376 90.624-37.376 37.376-90.624zM475.332 457.502q0 14.848-11.264 25.6t-25.6 10.752q-15.36 0-25.6-10.752l-97.792-97.792q-51.2 35.328-114.176 35.328-40.96 0-78.336-15.872t-64-43.008-43.008-64-15.872-78.336 15.872-77.824 43.008-64.512 64-43.008 78.336-15.872 78.336 15.872 64 43.008 43.008 64.512 15.872 77.824q0 62.976-35.328 114.176l97.792 97.792q10.752 10.752 10.752 26.112z">
	</path>
</svg>
